<svg xmlns="http://www.w3.org/2000/svg" viewBox="0 0 620 360" width="620" height="360" role="img" aria-labelledby="t d" font-family="system-ui, -apple-system, &#39;Segoe UI&#39;, Arial, sans-serif">
<title id="t">Zależność między dwiema zmiennymi ilościowymi</title>
<desc id="d">Wykres rozrzutu z dopasowaną prostą regresji; punkty układają się wzdłuż linii rosnącej, współczynnik korelacji wynosi 0.95.</desc>
<rect width="620" height="360" fill="#FFFFFF"></rect>
<line x1="56" y1="87.6" x2="592.0" y2="87.6" stroke="#E7ECF1" stroke-width="1"></line>
<line x1="56" y1="141.2" x2="592.0" y2="141.2" stroke="#E7ECF1" stroke-width="1"></line>
<line x1="56" y1="194.8" x2="592.0" y2="194.8" stroke="#E7ECF1" stroke-width="1"></line>
<line x1="56" y1="248.4" x2="592.0" y2="248.4" stroke="#E7ECF1" stroke-width="1"></line>
<line x1="56" y1="302.0" x2="592.0" y2="302.0" stroke="#C2CBD5" stroke-width="1"></line>
<line x1="56" y1="34" x2="56" y2="302.0" stroke="#C2CBD5" stroke-width="1"></line>
<polygon points="56.0,282.8 69.4,276.6 82.8,270.5 96.2,264.3 109.6,258.1 123.0,252.0 136.4,245.8 149.8,239.6 163.2,233.5 176.6,227.3 190.0,221.2 203.4,215.0 216.8,208.8 230.2,202.7 243.6,196.5 257.0,190.4 270.4,184.2 283.8,178.0 297.2,171.9 310.6,165.7 324.0,159.5 337.4,153.2 350.8,146.5 364.2,139.8 377.6,133.1 391.0,126.5 404.4,119.8 417.8,113.1 431.2,106.4 444.6,99.8 458.0,93.1 471.4,86.4 484.8,79.8 498.2,73.1 511.6,66.4 525.0,59.7 538.4,53.1 551.8,46.4 565.2,39.7 578.6,33.0 592.0,26.4 592.0,61.5 578.6,67.7 565.2,73.9 551.8,80.0 538.4,86.2 525.0,92.4 511.6,98.5 498.2,104.7 484.8,110.8 471.4,117.0 458.0,123.2 444.6,129.3 431.2,135.5 417.8,141.6 404.4,147.8 391.0,154.0 377.6,160.1 364.2,166.3 350.8,172.5 337.4,178.6 324.0,185.1 310.6,191.7 297.2,198.4 283.8,205.1 270.4,211.8 257.0,218.4 243.6,225.1 230.2,231.8 216.8,238.5 203.4,245.1 190.0,251.8 176.6,258.5 163.2,265.1 149.8,271.8 136.4,278.5 123.0,285.2 109.6,291.8 96.2,298.5 82.8,305.2 69.4,311.9 56.0,318.5" fill="#5C9A00" opacity="0.10"></polygon>
<line x1="56.0" y1="300.7" x2="592.0" y2="44.0" stroke="#5C9A00" stroke-width="2" stroke-linecap="round"></line>
<circle cx="94.3" cy="252.7" r="4" fill="#2563A8" stroke="#FFFFFF" stroke-width="2" opacity="0.95"></circle>
<circle cx="123.0" cy="290.2" r="4" fill="#2563A8" stroke="#FFFFFF" stroke-width="2" opacity="0.95"></circle>
<circle cx="142.1" cy="238.9" r="4" fill="#2563A8" stroke="#FFFFFF" stroke-width="2" opacity="0.95"></circle>
<circle cx="161.3" cy="276.4" r="4" fill="#2563A8" stroke="#FFFFFF" stroke-width="2" opacity="0.95"></circle>
<circle cx="180.4" cy="238.9" r="4" fill="#2563A8" stroke="#FFFFFF" stroke-width="2" opacity="0.95"></circle>
<circle cx="199.6" cy="260.6" r="4" fill="#2563A8" stroke="#FFFFFF" stroke-width="2" opacity="0.95"></circle>
<circle cx="209.1" cy="215.3" r="4" fill="#2563A8" stroke="#FFFFFF" stroke-width="2" opacity="0.95"></circle>
<circle cx="228.3" cy="229.1" r="4" fill="#2563A8" stroke="#FFFFFF" stroke-width="2" opacity="0.95"></circle>
<circle cx="247.4" cy="187.7" r="4" fill="#2563A8" stroke="#FFFFFF" stroke-width="2" opacity="0.95"></circle>
<circle cx="257.0" cy="219.2" r="4" fill="#2563A8" stroke="#FFFFFF" stroke-width="2" opacity="0.95"></circle>
<circle cx="276.1" cy="181.8" r="4" fill="#2563A8" stroke="#FFFFFF" stroke-width="2" opacity="0.95"></circle>
<circle cx="295.3" cy="213.3" r="4" fill="#2563A8" stroke="#FFFFFF" stroke-width="2" opacity="0.95"></circle>
<circle cx="304.9" cy="158.1" r="4" fill="#2563A8" stroke="#FFFFFF" stroke-width="2" opacity="0.95"></circle>
<circle cx="324.0" cy="179.8" r="4" fill="#2563A8" stroke="#FFFFFF" stroke-width="2" opacity="0.95"></circle>
<circle cx="343.1" cy="148.3" r="4" fill="#2563A8" stroke="#FFFFFF" stroke-width="2" opacity="0.95"></circle>
<circle cx="352.7" cy="175.9" r="4" fill="#2563A8" stroke="#FFFFFF" stroke-width="2" opacity="0.95"></circle>
<circle cx="371.9" cy="138.4" r="4" fill="#2563A8" stroke="#FFFFFF" stroke-width="2" opacity="0.95"></circle>
<circle cx="391.0" cy="156.2" r="4" fill="#2563A8" stroke="#FFFFFF" stroke-width="2" opacity="0.95"></circle>
<circle cx="400.6" cy="106.9" r="4" fill="#2563A8" stroke="#FFFFFF" stroke-width="2" opacity="0.95"></circle>
<circle cx="419.7" cy="138.4" r="4" fill="#2563A8" stroke="#FFFFFF" stroke-width="2" opacity="0.95"></circle>
<circle cx="438.9" cy="95.1" r="4" fill="#2563A8" stroke="#FFFFFF" stroke-width="2" opacity="0.95"></circle>
<circle cx="448.4" cy="136.5" r="4" fill="#2563A8" stroke="#FFFFFF" stroke-width="2" opacity="0.95"></circle>
<circle cx="467.6" cy="89.2" r="4" fill="#2563A8" stroke="#FFFFFF" stroke-width="2" opacity="0.95"></circle>
<circle cx="486.7" cy="110.9" r="4" fill="#2563A8" stroke="#FFFFFF" stroke-width="2" opacity="0.95"></circle>
<circle cx="505.9" cy="57.6" r="4" fill="#2563A8" stroke="#FFFFFF" stroke-width="2" opacity="0.95"></circle>
<circle cx="525.0" cy="81.3" r="4" fill="#2563A8" stroke="#FFFFFF" stroke-width="2" opacity="0.95"></circle>
<circle cx="534.6" cy="55.7" r="4" fill="#2563A8" stroke="#FFFFFF" stroke-width="2" opacity="0.95"></circle>
<circle cx="553.7" cy="91.1" r="4" fill="#2563A8" stroke="#FFFFFF" stroke-width="2" opacity="0.95"></circle>
<text x="56.0" y="18.0" fill="#54606E" font-size="11" text-anchor="start" font-weight="400" letter-spacing="0">zmienna zależna Y</text>
<text x="324.0" y="342.0" fill="#54606E" font-size="11" text-anchor="middle" font-weight="400" letter-spacing="0">zmienna niezależna X</text>
<text x="592.0" y="18.0" fill="#131922" font-size="12" text-anchor="end" font-weight="600" letter-spacing="0">r = 0.95 · p &lt; 0,001</text>
</svg>